<svg aria-hidden="true" style="position: absolute; width: 0; height: 0; overflow: hidden;" version="1.1" xmlns="http://www.w3.org/2000/svg" xmlns:xlink="http://www.w3.org/1999/xlink">
<defs>

<symbol id="icon-del" viewBox="0 0 32 32">
<path d="M28.992 7.153l-0.706-2.118c-0.269-0.807-1.021-1.349-1.871-1.349h-5.938v-1.933c0-0.966-0.786-1.753-1.752-1.753h-5.438c-0.966 0-1.752 0.786-1.752 1.753v1.933h-5.938c-0.85 0-1.603 0.542-1.872 1.349l-0.707 2.118c-0.161 0.482-0.079 1.016 0.218 1.428s0.778 0.659 1.286 0.659h0.739l1.625 20.1c0.121 1.491 1.386 2.66 2.882 2.66h12.804c1.495 0 2.761-1.169 2.882-2.66l1.626-20.1h0.409c0.508 0 0.989-0.246 1.286-0.658s0.379-0.947 0.218-1.429v0zM13.41 1.875h5.191v1.811h-5.191v-1.811zM23.585 29.189c-0.043 0.525-0.487 0.936-1.013 0.936h-12.804c-0.525 0-0.97-0.411-1.013-0.936l-1.614-19.949h18.056l-1.613 19.949zM4.925 7.365l0.579-1.737c0.013-0.040 0.051-0.067 0.093-0.067h20.818c0.042 0 0.079 0.027 0.093 0.067l0.579 1.737h-22.162z"></path>
<path d="M20.595 29.122c0.017 0.001 0.033 0.001 0.050 0.001 0.495 0 0.91-0.388 0.935-0.889l0.88-16.9c0.027-0.517-0.37-0.958-0.887-0.985-0.518-0.028-0.958 0.37-0.985 0.887l-0.88 16.9c-0.027 0.517 0.37 0.958 0.887 0.985v0z"></path>
<path d="M10.473 28.237c0.027 0.5 0.441 0.886 0.935 0.886 0.017 0 0.035-0.001 0.052-0.001 0.517-0.028 0.913-0.47 0.885-0.987l-0.922-16.9c-0.028-0.517-0.47-0.913-0.987-0.885s-0.913 0.47-0.885 0.987l0.922 16.9z"></path>
<path d="M16.016 29.123c0.518 0 0.938-0.42 0.938-0.937v-16.9c0-0.518-0.42-0.938-0.938-0.938s-0.938 0.42-0.938 0.938v16.9c0 0.518 0.42 0.937 0.938 0.937z"></path>

<symbol id="icon-toHome" viewBox="0 0 48 32">
<path fill="#ff751d" style="fill: var(--color1, #ff751d)" d="M48 13.333h-37.787l9.547-9.573-3.76-3.76-16 16 16 16 3.76-3.76-9.547-9.573h37.787v-5.333z"></path>
</symbol>
<symbol id="icon-arrowLeft" viewBox="0 0 19 32">
<path fill="none" stroke="#ff751d" style="stroke: var(--color1, #ff751d)" stroke-linejoin="miter" stroke-linecap="butt" stroke-miterlimit="4" stroke-width="5.3333" d="M16 2.667l-10.667 13.333 10.667 13.333"></path>
</symbol>
<symbol id="icon-arrowRight" viewBox="0 0 19 32">
<path fill="none" stroke="#ff751d" style="stroke: var(--color1, #ff751d)" stroke-linejoin="miter" stroke-linecap="butt" stroke-miterlimit="4" stroke-width="5.3333" d="M2.667 2.667l10.667 13.333-10.667 13.333"></path>

</symbol>
</defs>
</svg>
